<mxfile host="app.diagrams.net" modified="2023-09-26T18:09:44.810Z" agent="Mozilla/5.0 (X11; Linux x86_64) AppleWebKit/537.36 (KHTML, like Gecko) Chrome/117.0.0.0 Safari/537.36" etag="qCSjnBsO81QuPK_NYVRa" version="21.8.2" type="github">
  <diagram name="Page-1" id="fI2sqm4gBjux7chHO2XL">
    <mxGraphModel dx="803" dy="415" grid="1" gridSize="10" guides="1" tooltips="1" connect="1" arrows="1" fold="1" page="1" pageScale="1" pageWidth="850" pageHeight="1100" math="0" shadow="0">
      <root>
        <mxCell id="0" />
        <mxCell id="1" parent="0" />
        <mxCell id="V1NboFjANnd3-DUssf74-5" value="Actor" style="shape=umlActor;verticalLabelPosition=bottom;verticalAlign=top;html=1;outlineConnect=0;" vertex="1" parent="1">
          <mxGeometry x="60" y="230" width="30" height="60" as="geometry" />
        </mxCell>
        <mxCell id="V1NboFjANnd3-DUssf74-6" value="Actor" style="shape=umlActor;verticalLabelPosition=bottom;verticalAlign=top;html=1;outlineConnect=0;" vertex="1" parent="1">
          <mxGeometry x="60" y="320" width="30" height="60" as="geometry" />
        </mxCell>
        <mxCell id="V1NboFjANnd3-DUssf74-8" value="Actor" style="shape=umlActor;verticalLabelPosition=bottom;verticalAlign=top;html=1;outlineConnect=0;" vertex="1" parent="1">
          <mxGeometry x="60" y="420" width="30" height="60" as="geometry" />
        </mxCell>
        <mxCell id="V1NboFjANnd3-DUssf74-21" value="" style="sketch=0;points=[[0,0,0],[0.25,0,0],[0.5,0,0],[0.75,0,0],[1,0,0],[0,1,0],[0.25,1,0],[0.5,1,0],[0.75,1,0],[1,1,0],[0,0.25,0],[0,0.5,0],[0,0.75,0],[1,0.25,0],[1,0.5,0],[1,0.75,0]];outlineConnect=0;fontColor=#232F3E;fillColor=#8C4FFF;strokeColor=#ffffff;dashed=0;verticalLabelPosition=bottom;verticalAlign=top;align=center;html=1;fontSize=12;fontStyle=0;aspect=fixed;shape=mxgraph.aws4.resourceIcon;resIcon=mxgraph.aws4.cloud_map;" vertex="1" parent="1">
          <mxGeometry x="395" y="327.79" width="60" height="60" as="geometry" />
        </mxCell>
        <mxCell id="V1NboFjANnd3-DUssf74-25" value="" style="verticalLabelPosition=bottom;verticalAlign=top;html=1;shadow=0;dashed=0;strokeWidth=1;shape=mxgraph.ios.iBgMap;strokeColor=#18211b;strokeColor2=#008cff;fillColor2=#96D1FF;" vertex="1" parent="1">
          <mxGeometry x="170" y="218" width="175" height="280" as="geometry" />
        </mxCell>
        <mxCell id="V1NboFjANnd3-DUssf74-26" value="" style="sketch=0;html=1;aspect=fixed;strokeColor=#A50040;shadow=0;fillColor=#d80073;verticalAlign=top;labelPosition=center;verticalLabelPosition=bottom;shape=mxgraph.gcp2.maps_api;fontColor=#ffffff;" vertex="1" parent="1">
          <mxGeometry x="210" y="270" width="17.08" height="28" as="geometry" />
        </mxCell>
        <mxCell id="V1NboFjANnd3-DUssf74-28" value="" style="endArrow=open;html=1;strokeWidth=1;endFill=0;endSize=20;rounded=0;entryX=0.275;entryY=0.284;entryDx=0;entryDy=0;entryPerimeter=0;" edge="1" parent="1" target="V1NboFjANnd3-DUssf74-25">
          <mxGeometry width="100" relative="1" as="geometry">
            <mxPoint x="90" y="270" as="sourcePoint" />
            <mxPoint x="190" y="270" as="targetPoint" />
          </mxGeometry>
        </mxCell>
        <mxCell id="V1NboFjANnd3-DUssf74-29" value="" style="sketch=0;html=1;aspect=fixed;strokeColor=#A50040;shadow=0;fillColor=#d80073;verticalAlign=top;labelPosition=center;verticalLabelPosition=bottom;shape=mxgraph.gcp2.maps_api;fontColor=#ffffff;" vertex="1" parent="1">
          <mxGeometry x="240" y="299.79" width="17.08" height="28" as="geometry" />
        </mxCell>
        <mxCell id="V1NboFjANnd3-DUssf74-30" value="" style="endArrow=open;html=1;strokeWidth=1;endFill=0;endSize=20;rounded=0;entryX=0.445;entryY=0.394;entryDx=0;entryDy=0;entryPerimeter=0;" edge="1" parent="1" target="V1NboFjANnd3-DUssf74-25">
          <mxGeometry width="100" relative="1" as="geometry">
            <mxPoint x="90" y="357.5" as="sourcePoint" />
            <mxPoint x="190" y="357.5" as="targetPoint" />
          </mxGeometry>
        </mxCell>
        <mxCell id="V1NboFjANnd3-DUssf74-31" value="" style="endArrow=open;html=1;strokeWidth=1;endFill=0;endSize=20;rounded=0;entryX=0.514;entryY=0.471;entryDx=0;entryDy=0;entryPerimeter=0;" edge="1" parent="1" target="V1NboFjANnd3-DUssf74-25">
          <mxGeometry width="100" relative="1" as="geometry">
            <mxPoint x="90" y="460" as="sourcePoint" />
            <mxPoint x="190" y="460" as="targetPoint" />
          </mxGeometry>
        </mxCell>
        <mxCell id="V1NboFjANnd3-DUssf74-32" value="" style="sketch=0;html=1;aspect=fixed;strokeColor=#6F0000;shadow=0;fillColor=#a20025;verticalAlign=top;labelPosition=center;verticalLabelPosition=bottom;shape=mxgraph.gcp2.maps_api;fontColor=#ffffff;" vertex="1" parent="1">
          <mxGeometry x="251.4" y="330" width="12.2" height="20" as="geometry" />
        </mxCell>
        <mxCell id="V1NboFjANnd3-DUssf74-33" value="" style="ellipse;whiteSpace=wrap;html=1;aspect=fixed;strokeColor=#66FF66;fillColor=#1A1A1A;opacity=70;" vertex="1" parent="1">
          <mxGeometry x="200.44" y="265.69" width="96.21" height="96.21" as="geometry" />
        </mxCell>
      </root>
    </mxGraphModel>
  </diagram>
</mxfile>
